<svg width="74" height="24" viewBox="0 0 74 24" fill="none" xmlns="http://www.w3.org/2000/svg">
<mask id="mask0_6002_687" style="mask-type:luminance" maskUnits="userSpaceOnUse" x="0" y="0" width="74" height="24">
<path d="M73.0161 0.00195312H0.000488281V23.8045H73.0161V0.00195312Z" fill="white"/>
</mask>
<g mask="url(#mask0_6002_687)">
<path d="M11.2926 0.0230049C11.8877 -0.0226546 12.5106 0.0114502 13.1037 0.0727607C13.6551 0.129803 14.1968 0.203918 14.7359 0.339777C16.552 0.797407 18.3037 1.75833 19.722 2.96924C21.4475 4.44241 22.6522 6.45591 23.3125 8.60722C23.4587 9.08343 23.5644 9.55769 23.6414 10.0496C23.6666 10.2101 23.7032 10.3633 23.7158 10.5258L15.7961 10.5217C15.728 10.4072 15.6936 10.2678 15.6427 10.1442C15.5945 10.027 15.525 9.91259 15.4581 9.80519C14.8634 8.85116 13.8228 8.13035 12.7252 7.88183C11.937 7.70333 10.8536 7.73786 10.1552 8.17928C10.291 8.3584 10.4762 8.5196 10.6269 8.69018L11.4413 9.62979L12.6689 10.9316L15.7301 14.2199L17.0557 15.6282C17.1098 15.6913 17.1411 15.7432 17.1628 15.8235C17.1377 16.0368 16.9513 16.1863 16.808 16.3317L16.2569 16.8747C15.2542 17.7822 13.9165 18.3933 12.5669 18.5365C12.101 18.586 11.5657 18.573 11.0952 18.5466C10.8295 18.5318 10.55 18.4699 10.2915 18.4072C9.23791 18.1516 8.25093 17.604 7.44577 16.8847C7.0911 16.5679 6.79408 16.2225 6.47695 15.8703L4.4292 15.866C4.26761 15.865 3.58323 15.8254 3.48622 15.8927C3.48264 16.0705 3.57371 16.2317 3.65533 16.3847C3.79832 16.6528 3.95266 16.9212 4.12606 17.1709C5.13189 18.6192 6.5316 19.8308 8.17312 20.5104C8.8674 20.7979 9.59597 20.9849 10.335 21.1172C11.1589 21.2646 12.0095 21.3037 12.8426 21.2198C13.1338 21.1904 13.4377 21.1234 13.7232 21.0602C14.374 20.9161 15.0115 20.7213 15.6229 20.4557C16.1349 20.2332 16.6442 19.9759 17.1028 19.6567C18.6973 18.5466 19.971 16.9542 20.5731 15.1016C20.7595 14.5281 20.8724 13.927 20.979 13.3345L23.2025 13.3276C23.3026 13.3278 23.5314 13.2923 23.6215 13.3282C23.6363 13.3341 23.6468 13.3476 23.6593 13.3572L23.6652 13.4037C23.6773 13.6965 23.5751 14.0413 23.5188 14.3291C23.1339 16.2949 22.2175 18.0936 20.9293 19.6239C19.2468 21.6225 16.8332 23.0076 14.2779 23.5402C13.5911 23.6834 12.8934 23.7437 12.1954 23.8045L10.8128 23.7398C10.6079 23.7246 10.4037 23.7249 10.1995 23.6981C8.85684 23.5216 7.48114 23.0712 6.28917 22.4323C5.48782 22.0028 4.76151 21.4784 4.06844 20.8945C2.36417 19.4587 1.11736 17.5719 0.468433 15.4431C0.25985 14.7589 0.0967205 14.0299 0.0375342 13.3157C0.698679 13.2675 1.39093 13.3062 2.05498 13.3066L5.94299 13.312L7.24816 13.3173C7.41 13.3174 7.63954 13.2831 7.79109 13.3292C8.05368 13.4089 8.16165 13.8324 8.28256 14.0513C8.76946 14.9322 9.76015 15.6213 10.72 15.8916C11.6189 16.1448 12.7517 16.1077 13.5808 15.6488L12.9921 15.0318L11.1348 13.0365L8.81084 10.5511L7.2612 8.89345C7.00083 8.61363 6.70816 8.3445 6.47748 8.04132C6.57505 7.89068 6.7001 7.75744 6.818 7.62241C7.01319 7.3988 7.2112 7.17952 7.43235 6.98062C8.824 5.72906 10.5709 5.17327 12.4324 5.28408C13.8577 5.36893 15.2583 6.03338 16.3232 6.96279C16.6637 7.25998 16.9718 7.59972 17.2725 7.93615C17.4612 7.95823 17.6587 7.94729 17.8487 7.94777L18.8843 7.95055L19.7003 7.95646C19.9125 7.96098 20.1094 7.97609 20.3218 7.94896C20.2566 7.74534 20.1393 7.5498 20.0353 7.36359C19.7334 6.82331 19.3738 6.32661 18.971 5.85644C17.3421 3.95478 15.0264 2.76655 12.5215 2.57852C10.0932 2.39618 7.64661 3.22121 5.80419 4.79483C4.29313 6.08547 3.05104 8.0079 2.76789 9.99421C2.74311 10.168 2.73735 10.348 2.72376 10.5232L0.000488281 10.542C0.019856 10.1964 0.0936005 9.84822 0.159893 9.50886C0.574803 7.38569 1.64982 5.41941 3.0972 3.82098C5.18201 1.5186 8.20028 0.181455 11.2926 0.0230049Z" fill="white" fill-opacity="0.64"/>
<path d="M33.3235 9.84645C33.27 9.345 33.0441 8.95456 32.646 8.67515C32.2516 8.39571 31.7388 8.25601 31.1072 8.25601C30.6633 8.25601 30.2824 8.32298 29.9646 8.45697C29.647 8.59094 29.404 8.77274 29.2355 9.0024C29.067 9.23207 28.9811 9.49428 28.977 9.78902C28.977 10.034 29.0326 10.2464 29.1435 10.4263C29.2584 10.6062 29.4136 10.7594 29.6086 10.8857C29.8039 11.0081 30.0201 11.1115 30.2576 11.1957C30.4948 11.2799 30.7341 11.3507 30.9751 11.4082L32.0776 11.6838C32.5217 11.7871 32.9484 11.9268 33.3579 12.1029C33.7715 12.279 34.1408 12.501 34.4662 12.7689C34.7954 13.0369 35.0556 13.3603 35.2471 13.7392C35.4383 14.1182 35.5341 14.5622 35.5341 15.0713C35.5341 15.7603 35.358 16.367 35.0058 16.8914C34.6536 17.412 34.1446 17.8196 33.4787 18.1144C32.8163 18.4053 32.0144 18.5507 31.0728 18.5507C30.1581 18.5507 29.3638 18.4091 28.69 18.1259C28.02 17.8426 27.4958 17.4292 27.1169 16.8857C26.7417 16.3421 26.5389 15.6799 26.5083 14.8991H28.6039C28.6344 15.3086 28.7608 15.6493 28.9828 15.9211C29.2049 16.1929 29.4939 16.3957 29.8499 16.5297C30.2096 16.6637 30.6115 16.7307 31.0557 16.7307C31.5187 16.7307 31.9245 16.6617 32.2728 16.524C32.625 16.3823 32.9006 16.1871 33.0997 15.9383C33.2985 15.6857 33.4001 15.3909 33.4039 15.0541C33.4001 14.7479 33.3102 14.4952 33.1341 14.2962C32.958 14.0933 32.7112 13.9249 32.3934 13.7909C32.0796 13.6531 31.712 13.5306 31.2909 13.4235L29.9532 13.079C28.9848 12.8302 28.2191 12.4531 27.6565 11.9479C27.0977 11.4388 26.8183 10.7632 26.8183 9.92107C26.8183 9.22826 27.0057 8.62156 27.3809 8.10099C27.7598 7.58042 28.2747 7.17659 28.9255 6.8895C29.5763 6.59859 30.3129 6.45312 31.136 6.45312C31.9704 6.45312 32.7016 6.59859 33.3294 6.8895C33.9609 7.17659 34.4566 7.57658 34.8163 8.08949C35.1761 8.5986 35.3618 9.18422 35.3734 9.84645H33.3235ZM37.4331 18.3728V6.6139H41.8425C42.7459 6.6139 43.5038 6.78233 44.1162 7.11916C44.7326 7.456 45.1977 7.91917 45.5115 8.50864C45.8293 9.09429 45.9882 9.7603 45.9882 10.5067C45.9882 11.2608 45.8293 11.9306 45.5115 12.5163C45.1939 13.1019 44.7251 13.5632 44.1048 13.9C43.4846 14.233 42.7212 14.3995 41.814 14.3995H38.8915V12.6484H41.5267C42.055 12.6484 42.4878 12.5565 42.8245 12.3728C43.1613 12.189 43.4101 11.9364 43.5708 11.6149C43.7355 11.2933 43.8179 10.9239 43.8179 10.5067C43.8179 10.0895 43.7355 9.72203 43.5708 9.40434C43.4101 9.08663 43.1595 8.83974 42.8187 8.66365C42.4819 8.48375 42.0474 8.39382 41.5154 8.39382H39.5633V18.3728H37.4331ZM49.9684 6.6139V18.3728H47.8382V6.6139H49.9684ZM61.9384 6.6139V18.3728H60.0436L54.5029 10.3632H54.4054V18.3728H52.2752V6.6139H54.1813L59.7162 14.6292H59.8198V6.6139H61.9384ZM64.2593 18.3728V6.6139H71.9072V8.39955H66.3895V11.5919H71.5111V13.3775H66.3895V16.5871H71.9532V18.3728H64.2593Z" fill="white" fill-opacity="0.64"/>
</g>
</svg>
