<svg width="85" height="24" viewBox="0 0 85 24" fill="none" xmlns="http://www.w3.org/2000/svg">
<g clip-path="url(#clip0_6002_677)">
<mask id="mask0_6002_677" style="mask-type:luminance" maskUnits="userSpaceOnUse" x="-1" y="0" width="86" height="24">
<path d="M84.1542 0.00195312H-0.000244141V23.8685H84.1542V0.00195312Z" fill="white"/>
</mask>
<g mask="url(#mask0_6002_677)">
<path d="M24.5275 6.49121L27.9479 16.8356H28.0826L31.4964 6.49121H34.1147L29.4816 19.6334H26.5425L21.9158 6.49121H24.5275ZM35.8458 19.6334V6.49121H44.3932V8.48694H38.2266V12.0548H43.9505V14.0506H38.2266V17.6377H44.4446V19.6334H35.8458ZM57.6223 6.49121V19.6334H55.5046L49.3121 10.6816H49.2031V19.6334H46.8223V6.49121H48.9526L55.1387 15.4495H55.2542V6.49121H57.6223ZM68.5008 6.49121H70.8816V15.0773C70.8816 16.0185 70.6591 16.8463 70.2141 17.5607C69.7736 18.2752 69.1533 18.8335 68.3531 19.2356C67.5532 19.6334 66.6186 19.8324 65.549 19.8324C64.4753 19.8324 63.5381 19.6334 62.7382 19.2356C61.9383 18.8335 61.318 18.2752 60.8772 17.5607C60.4368 16.8463 60.2162 16.0185 60.2162 15.0773V6.49121H62.597V14.8784C62.597 15.426 62.7168 15.9137 62.9565 16.3415C63.2002 16.7693 63.5426 17.1051 63.9831 17.349C64.4239 17.5885 64.9457 17.7083 65.549 17.7083C66.1521 17.7083 66.6739 17.5885 67.1147 17.349C67.5597 17.1051 67.9019 16.7693 68.1413 16.3415C68.381 15.9137 68.5008 15.426 68.5008 14.8784V6.49121ZM80.6114 10.104C80.5516 9.54362 80.2992 9.10724 79.8542 8.79496C79.4137 8.48265 78.8405 8.32651 78.1346 8.32651C77.6383 8.32651 77.2125 8.40136 76.8576 8.55109C76.5024 8.70082 76.2307 8.90403 76.0424 9.16072C75.8544 9.41741 75.7581 9.71046 75.7538 10.0399C75.7538 10.3137 75.8157 10.5511 75.9399 10.7522C76.0681 10.9532 76.2415 11.1244 76.4597 11.2655C76.6777 11.4024 76.9194 11.5179 77.1848 11.6121C77.4499 11.7062 77.7173 11.7853 77.987 11.8495L79.2189 12.1575C79.7153 12.273 80.1921 12.4292 80.6501 12.626C81.1121 12.8228 81.5249 13.0709 81.8885 13.3703C82.2564 13.6698 82.5472 14.0313 82.7613 14.4548C82.975 14.8784 83.082 15.3746 83.082 15.9436C83.082 16.7137 82.8852 17.3917 82.4916 17.9778C82.098 18.5597 81.5291 19.0153 80.7848 19.3447C80.0448 19.6698 79.1483 19.8324 78.096 19.8324C77.0736 19.8324 76.1858 19.6741 75.4328 19.3575C74.6843 19.041 74.0981 18.5789 73.6746 17.9714C73.2553 17.3639 73.0286 16.6238 72.9944 15.7511H75.3365C75.371 16.2089 75.5121 16.5896 75.7601 16.8933C76.0082 17.1971 76.3313 17.4238 76.7291 17.5736C77.1312 17.7233 77.5804 17.7981 78.0768 17.7981C78.5943 17.7981 79.0478 17.7212 79.4371 17.5672C79.8307 17.4089 80.1388 17.1907 80.3613 16.9126C80.5838 16.6303 80.697 16.3008 80.7012 15.9244C80.697 15.5821 80.5965 15.2998 80.3997 15.0773C80.2029 14.8506 79.927 14.6623 79.5718 14.5126C79.2211 14.3586 78.8103 14.2217 78.3399 14.1019L76.8446 13.7169C75.7623 13.4388 74.9068 13.0174 74.2777 12.4527C73.6531 11.8837 73.3409 11.1286 73.3409 10.1875C73.3409 9.41314 73.5506 8.73507 73.9697 8.15325C74.3935 7.57141 74.9686 7.1201 75.696 6.79923C76.4233 6.4741 77.2469 6.31152 78.1665 6.31152C79.0992 6.31152 79.9163 6.4741 80.6179 6.79923C81.3238 7.1201 81.8778 7.56715 82.2799 8.14041C82.6822 8.70938 82.8895 9.36393 82.9025 10.104H80.6114Z" fill="white" fill-opacity="0.64"/>
<path d="M4.61327 5.29836C4.82537 5.51648 4.96277 5.76741 5.13201 6.01619L5.75434 6.91325L8.09519 10.3177L9.3976 12.2376L14.2877 5.29297L14.2468 9.97209C14.2478 10.0408 14.2675 10.2372 14.244 10.2907C14.1937 10.4054 14.0322 10.5598 13.9523 10.6639L13.1989 11.6764L11.0095 14.7156L9.41612 16.9661L6.4583 12.7511L5.47659 11.3988L4.89972 10.6234C4.821 10.5201 4.65904 10.354 4.61993 10.2306C4.59599 10.1552 4.61073 10.0078 4.6103 9.9268L4.60824 9.13537L4.61327 5.29836Z" fill="white" fill-opacity="0.64"/>
<path d="M-0.000244141 0.00195312C0.097027 0.140467 0.226787 0.260743 0.329067 0.398139L2.16292 2.78474C2.28159 2.93814 2.41135 3.08542 2.52312 3.24362C2.55094 3.28306 2.61436 3.35814 2.62812 3.4025C2.64582 3.4597 2.63581 3.55285 2.63595 3.61426L2.64106 16.8134C2.97612 16.8336 3.3202 16.8203 3.65614 16.8202L5.50804 16.8168C5.87397 16.8164 6.25176 16.7957 6.61523 16.8407C6.68345 16.8904 6.73257 16.9793 6.78004 17.049L7.09249 17.5137L7.78375 18.5366C8.03027 18.8934 8.29661 19.2531 8.51498 19.6275L0.0129849 19.6332L-0.000244141 0.00195312Z" fill="white" fill-opacity="0.64"/>
<path d="M18.8424 0.09375L18.881 0.0983216L18.8802 19.6058C18.7408 19.6529 18.4824 19.6198 18.3309 19.6204L16.9212 19.6248L10.3378 19.6316L10.3014 19.6232L10.2937 19.5966C10.3714 19.4432 10.481 19.3147 10.5804 19.1755L11.8005 17.427C11.9447 17.2233 12.0806 17.0043 12.2446 16.8163L15.8713 16.8084C15.916 16.8083 16.2177 16.819 16.2345 16.8064C16.249 16.7957 16.2455 15.0345 16.2471 14.3082L16.2568 3.97997C16.2579 3.82205 16.2259 3.57635 16.2619 3.4319C16.2961 3.29445 16.4986 3.08763 16.5875 2.97629L17.1778 2.21636L18.0814 1.04545C18.3245 0.722949 18.5574 0.380602 18.8424 0.09375Z" fill="white" fill-opacity="0.64"/>
</g>
</g>
<defs>
<clipPath id="clip0_6002_677">
<rect width="84.4235" height="24" fill="white"/>
</clipPath>
</defs>
</svg>
