<svg width="91" height="24" viewBox="0 0 91 24" fill="none" xmlns="http://www.w3.org/2000/svg">
<g clip-path="url(#clip0_6002_669)">
<mask id="mask0_6002_669" style="mask-type:luminance" maskUnits="userSpaceOnUse" x="0" y="0" width="91" height="25">
<path d="M90.4061 0.00195312H0V24.002H90.4061V0.00195312Z" fill="white"/>
</mask>
<g mask="url(#mask0_6002_669)">
<path d="M42.9726 8.4471C42.8968 7.54511 42.5287 6.81547 41.8673 6.25821C41.2109 5.70094 40.3609 5.42232 39.3174 5.42232C38.6136 5.42232 37.9877 5.55217 37.4401 5.81193C36.8921 6.07166 36.4626 6.42586 36.1509 6.87451C35.8393 7.32312 35.6834 7.83791 35.6834 8.41877C35.6834 8.79186 35.7542 9.12951 35.8957 9.43175C36.0422 9.72926 36.2476 9.9961 36.5122 10.2322C36.7765 10.4636 37.0907 10.6667 37.4541 10.8414C37.8179 11.0162 38.2193 11.1697 38.6585 11.3019L40.2453 11.7694C40.7882 11.9347 41.2888 12.126 41.747 12.3432C42.2099 12.5605 42.6113 12.8202 42.9514 13.1224C43.2961 13.42 43.5629 13.7694 43.7518 14.1708C43.9453 14.5722 44.0423 15.0351 44.0423 15.5593C44.0423 16.3243 43.8437 17.0091 43.4473 17.6136C43.0552 18.2181 42.4957 18.695 41.7682 19.0445C41.0457 19.3893 40.1932 19.5616 39.2111 19.5616C38.276 19.5616 37.4613 19.4034 36.7672 19.087C36.0777 18.7706 35.5322 18.3314 35.1308 17.7694C34.7293 17.2027 34.5027 16.551 34.4507 15.8143H35.3574C35.4048 16.414 35.5958 16.9335 35.9312 17.3727C36.2713 17.8072 36.7223 18.1425 37.2842 18.3786C37.8462 18.6147 38.4886 18.7328 39.2111 18.7328C39.9903 18.7328 40.6773 18.6006 41.2723 18.3361C41.8673 18.0669 42.3327 17.6939 42.668 17.2169C43.0031 16.7399 43.1708 16.185 43.1708 15.5522C43.1708 15.0421 43.0505 14.6053 42.8095 14.2417C42.5686 13.8781 42.2123 13.564 41.7398 13.2995C41.2723 13.0351 40.6916 12.7989 39.9972 12.5912L38.3044 12.0811C37.1708 11.7363 36.3043 11.2665 35.7046 10.6714C35.1096 10.0764 34.8119 9.33494 34.8119 8.4471C34.8119 7.70095 35.0102 7.0398 35.4069 6.46364C35.8037 5.88275 36.342 5.42703 37.0221 5.09645C37.7069 4.76587 38.4789 4.60059 39.3386 4.60059C40.2029 4.60059 40.9656 4.76824 41.6267 5.10353C42.2878 5.4341 42.812 5.88985 43.1992 6.47072C43.5866 7.04687 43.8013 7.70566 43.8437 8.4471H42.9726ZM60.6771 12.074C60.6771 13.5711 60.4171 14.8792 59.8979 15.9985C59.3783 17.113 58.6558 17.9796 57.7301 18.5982C56.8093 19.2169 55.7468 19.5262 54.5424 19.5262C53.3334 19.5262 52.2662 19.2169 51.3405 18.5982C50.4197 17.9749 49.6994 17.1059 49.1798 15.9914C48.6606 14.8721 48.4006 13.5664 48.4006 12.074C48.4006 10.577 48.6606 9.27117 49.1798 8.15667C49.7041 7.04213 50.4266 6.17555 51.3476 5.55691C52.2683 4.93353 53.3334 4.62184 54.5424 4.62184C55.7468 4.62184 56.8093 4.93116 57.7301 5.54983C58.6558 6.16847 59.3783 7.03743 59.8979 8.15667C60.4171 9.27117 60.6771 10.577 60.6771 12.074ZM59.8128 12.074C59.8128 10.7281 59.5862 9.56164 59.1327 8.57461C58.6841 7.58759 58.0629 6.82492 57.2697 6.28654C56.4761 5.74345 55.5673 5.47191 54.5424 5.47191C53.5176 5.47191 52.6084 5.74108 51.8151 6.27946C51.0216 6.81311 50.3982 7.57581 49.945 8.56754C49.4965 9.55453 49.2721 10.7234 49.2721 12.074C49.2721 13.4105 49.494 14.5746 49.9379 15.5663C50.3867 16.5534 51.0076 17.3184 51.8008 17.8615C52.5944 18.4046 53.5082 18.6761 54.5424 18.6761C55.5673 18.6761 56.4761 18.407 57.2697 17.8686C58.0629 17.3255 58.6841 16.5604 59.1327 15.5734C59.5862 14.5864 59.8128 13.42 59.8128 12.074ZM65.7333 19.3279V4.82017H70.2032C71.1193 4.82017 71.9081 4.99964 72.5692 5.35855C73.2303 5.71746 73.7381 6.21569 74.0921 6.85325C74.4465 7.48607 74.6236 8.22278 74.6236 9.0634C74.6236 9.89455 74.4465 10.6266 74.0921 11.2594C73.7381 11.8875 73.2303 12.3786 72.5692 12.7328C71.9128 13.087 71.1264 13.2641 70.2104 13.2641H66.208V12.4353H70.1889C70.935 12.4353 71.5728 12.296 72.1017 12.0174C72.6306 11.7387 73.0368 11.3491 73.3201 10.8485C73.6034 10.3432 73.7452 9.74818 73.7452 9.0634C73.7452 8.37392 73.6034 7.77413 73.3201 7.26412C73.0368 6.74933 72.6281 6.35028 72.0945 6.06692C71.5656 5.7836 70.9282 5.64191 70.182 5.64191H66.6188V19.3279H65.7333ZM71.6909 12.7541L75.261 19.3279H74.2408L70.6919 12.7541H71.6909ZM79.1982 19.3279H78.2631L83.498 4.82017H84.5181L89.7529 19.3279H88.8179L84.0434 5.96067H83.9727L79.1982 19.3279ZM80.5229 13.8662H87.4932V14.6879H80.5229V13.8662Z" fill="white" fill-opacity="0.64"/>
<path d="M24.1493 16.8463C21.6297 18.3005 18.7305 18.4519 16.9808 18.3753C18.6283 17.5305 21.2264 15.8538 22.8138 13.1043C23.2389 12.369 23.5582 11.61 23.8008 10.8564C26.1983 10.1868 28.5081 10.3328 29.5152 10.4478C28.9715 11.7012 27.293 15.031 24.1493 16.8463ZM6.48437 16.8463C3.34804 15.0346 1.664 11.7012 1.11847 10.4478C2.1256 10.331 4.43542 10.1887 6.83284 10.8564C7.07552 11.61 7.39481 12.369 7.81992 13.1043C9.40723 15.8538 12.0053 17.5305 13.6511 18.3753C11.9032 18.4519 9.00403 18.3005 6.48437 16.8463ZM7.11931 4.44692C8.37457 4.99247 11.708 6.67649 13.5179 9.81282C14.2696 11.1137 14.6691 12.5149 14.8735 13.8085C14.6126 15.5528 14.6929 17.0817 14.7859 17.9575C13.4212 17.3408 10.2994 15.6732 8.56798 12.6718C6.75622 9.53368 6.96421 5.8062 7.11931 4.44692ZM15.3168 2.25021C15.9208 3.06395 17.1997 4.99247 17.8201 7.40447C17.2891 7.99013 16.7911 8.64695 16.3678 9.38042C15.9062 10.1814 15.565 11.0097 15.3168 11.8289C15.0687 11.0097 14.7275 10.1814 14.2659 9.38042C13.8426 8.64515 13.3445 7.98833 12.8136 7.40263C13.4321 4.99247 14.7129 3.06395 15.3168 2.25021ZM22.0657 12.6718C20.3343 15.6732 17.2125 17.3408 15.8478 17.9575C15.9408 17.0817 16.0211 15.5528 15.7584 13.8085C15.9646 12.5149 16.3641 11.1137 17.1158 9.81282C18.9258 6.67649 22.2591 4.99247 23.5144 4.44692C23.6677 5.8062 23.8775 9.53368 22.0657 12.6718ZM30.4968 9.88217C30.4905 9.87139 30.4838 9.86095 30.4767 9.85085C30.4116 9.75812 30.3131 9.69373 30.2012 9.67235C30.0753 9.64863 27.2528 9.13593 24.0709 9.89492C24.8299 6.73303 24.319 3.91599 24.2898 3.75909C24.2661 3.63501 24.1895 3.52919 24.08 3.46535C23.9724 3.40149 23.841 3.39055 23.7224 3.4325C23.571 3.48359 20.8761 4.45057 18.517 6.68743C17.5847 3.55291 15.7292 1.36532 15.6434 1.2668C15.5613 1.17192 15.4427 1.11719 15.3168 1.11719C15.1909 1.11719 15.0705 1.17192 14.9884 1.2668C14.9063 1.3635 13.049 3.5511 12.1148 6.68743C9.75753 4.45057 7.06274 3.48359 6.91129 3.4325C6.79272 3.39055 6.66135 3.4033 6.55188 3.46535C6.44422 3.52919 6.36761 3.63501 6.34389 3.75909C6.31469 3.91599 5.80383 6.73303 6.56098 9.89492C3.38086 9.13593 0.558342 9.64863 0.430624 9.67235C0.306558 9.69606 0.200736 9.77268 0.136878 9.88217C0.0748441 9.9898 0.062073 10.1212 0.104037 10.2398C0.173368 10.4405 1.87382 15.1824 6.05196 17.5944C8.42017 18.9609 11.0347 19.2656 12.8957 19.2656C14.1382 19.2656 15.0432 19.1306 15.3168 19.0832C15.5905 19.1306 16.4955 19.2656 17.738 19.2656C19.599 19.2656 22.2135 18.9609 24.5799 17.5944C28.4071 15.3859 30.1557 11.2242 30.4767 10.3835C30.5063 10.306 30.5238 10.2567 30.5297 10.2398C30.5716 10.1212 30.5588 9.9898 30.4968 9.88217Z" fill="white" fill-opacity="0.64"/>
<path fill-rule="evenodd" clip-rule="evenodd" d="M30.4767 9.85085V10.3835C30.1557 11.2242 28.4071 15.3859 24.5799 17.5944C22.2135 18.9609 19.599 19.2656 17.738 19.2656C16.4955 19.2656 15.5905 19.1306 15.3168 19.0832C15.0432 19.1306 14.1382 19.2656 12.8957 19.2656C11.0347 19.2656 8.42017 18.9609 6.05196 17.5944C1.87382 15.1824 0.173368 10.4405 0.104037 10.2398C0.062073 10.1212 0.0748441 9.9898 0.136878 9.88217C0.200736 9.77268 0.306558 9.69606 0.430624 9.67235C0.558342 9.64863 3.38086 9.13593 6.56098 9.89492C5.80383 6.73303 6.31469 3.91599 6.34389 3.75909C6.36761 3.63501 6.44422 3.52919 6.55188 3.46535C6.66135 3.4033 6.79272 3.39055 6.91129 3.4325C7.06274 3.48359 9.75753 4.45057 12.1148 6.68743C13.049 3.5511 14.9063 1.3635 14.9884 1.2668C15.0705 1.17192 15.1909 1.11719 15.3168 1.11719C15.4427 1.11719 15.5613 1.17192 15.6434 1.2668C15.7292 1.36532 17.5847 3.55291 18.517 6.68743C20.8761 4.45057 23.571 3.48359 23.7224 3.4325C23.841 3.39055 23.9724 3.40149 24.08 3.46535C24.1894 3.52919 24.2661 3.63501 24.2898 3.75909C24.319 3.91599 24.8299 6.73303 24.0709 9.89492C27.2528 9.13593 30.0753 9.64863 30.2012 9.67235C30.3131 9.69373 30.4116 9.75812 30.4767 9.85085ZM13.5179 9.81282C11.708 6.67649 8.37457 4.99247 7.11931 4.44692C6.96421 5.8062 6.75622 9.53368 8.56797 12.6718C10.2994 15.6732 13.4212 17.3408 14.7859 17.9575C14.6929 17.0817 14.6126 15.5528 14.8735 13.8085C14.6691 12.5149 14.2696 11.1137 13.5179 9.81282ZM6.48437 16.8463C3.34804 15.0346 1.664 11.7012 1.11847 10.4478C2.1256 10.331 4.43542 10.1887 6.83284 10.8564C7.07552 11.61 7.39481 12.369 7.81992 13.1043C9.40723 15.8538 12.0053 17.5305 13.651 18.3753C11.9032 18.4519 9.00403 18.3005 6.48437 16.8463ZM15.8478 17.9575C17.2125 17.3408 20.3343 15.6732 22.0657 12.6718C23.8775 9.53368 23.6677 5.8062 23.5144 4.44692C22.2591 4.99247 18.9258 6.67649 17.1158 9.81282C16.3641 11.1137 15.9646 12.5149 15.7584 13.8085C16.0211 15.5528 15.9408 17.0817 15.8478 17.9575ZM24.1493 16.8463C21.6297 18.3005 18.7305 18.4519 16.9808 18.3753C18.6283 17.5305 21.2264 15.8538 22.8138 13.1043C23.2389 12.369 23.5582 11.61 23.8008 10.8564C26.1982 10.1868 28.5081 10.3328 29.5152 10.4478C28.9715 11.7012 27.293 15.031 24.1493 16.8463ZM17.8201 7.40447C17.1997 4.99247 15.9208 3.06395 15.3168 2.25021C14.7129 3.06395 13.4321 4.99247 12.8136 7.40263C13.3445 7.98833 13.8426 8.64515 14.2659 9.38042C14.7275 10.1814 15.0687 11.0097 15.3168 11.8289C15.565 11.0097 15.9062 10.1814 16.3678 9.38042C16.7911 8.64695 17.2891 7.99013 17.8201 7.40447Z" fill="white" fill-opacity="0.64"/>
</g>
</g>
<defs>
<clipPath id="clip0_6002_669">
<rect width="90.7013" height="24" fill="white"/>
</clipPath>
</defs>
</svg>
