<svg width="81" height="24" viewBox="0 0 81 24" fill="none" xmlns="http://www.w3.org/2000/svg">
<mask id="mask0_6002_663" style="mask-type:luminance" maskUnits="userSpaceOnUse" x="0" y="0" width="81" height="24">
<path d="M80.7647 0H0V24H80.7647V0Z" fill="white"/>
</mask>
<g mask="url(#mask0_6002_663)">
<path d="M40.0903 8.62857C40.0149 7.95798 39.7032 7.43849 39.1553 7.07013C38.6076 6.69704 37.9182 6.51053 37.0869 6.51053C36.4919 6.51053 35.977 6.60497 35.5425 6.79388C35.1083 6.97806 34.7704 7.23305 34.5295 7.55892C34.2936 7.88005 34.1754 8.24604 34.1754 8.65691C34.1754 9.00167 34.2558 9.29917 34.4164 9.54949C34.5816 9.79977 34.7966 10.0099 35.0609 10.1799C35.3302 10.3452 35.6182 10.4846 35.9253 10.5979C36.2323 10.7065 36.5274 10.7962 36.8108 10.8671L38.2274 11.2354C38.6902 11.3488 39.1649 11.5022 39.6512 11.6959C40.1377 11.8895 40.5887 12.1445 41.0042 12.4609C41.42 12.7773 41.7551 13.1693 42.01 13.6368C42.27 14.1044 42.3996 14.664 42.3996 15.3157C42.3996 16.1374 42.1874 16.8671 41.7622 17.5046C41.3421 18.1421 40.7302 18.6451 39.9276 19.0135C39.1294 19.3818 38.1638 19.566 37.0302 19.566C35.944 19.566 35.0042 19.3936 34.211 19.0489C33.4174 18.7041 32.7965 18.2154 32.3477 17.5825C31.8992 16.945 31.6514 16.1894 31.604 15.3157H33.8002C33.8426 15.8399 34.0124 16.2768 34.3101 16.6262C34.6124 16.971 34.997 17.2283 35.4646 17.3984C35.9371 17.5636 36.4542 17.6463 37.0162 17.6463C37.6349 17.6463 38.185 17.5495 38.6666 17.3558C39.1531 17.1575 39.5355 16.8836 39.8142 16.5341C40.0928 16.1799 40.2322 15.7667 40.2322 15.2945C40.2322 14.8647 40.1094 14.5129 39.8637 14.239C39.6228 13.9651 39.2946 13.7384 38.8791 13.5589C38.4683 13.3795 38.003 13.2213 37.4837 13.0843L35.7694 12.6168C34.6074 12.3004 33.6867 11.8352 33.0066 11.2213C32.3312 10.6073 31.9936 9.79504 31.9936 8.78442C31.9936 7.94853 32.2202 7.2189 32.6737 6.59552C33.1269 5.97215 33.7409 5.4881 34.5155 5.14334C35.29 4.79387 36.1637 4.61914 37.1365 4.61914C38.1189 4.61914 38.9854 4.7915 39.7363 5.13626C40.4918 5.48099 41.0868 5.95563 41.5213 6.56012C41.9558 7.15987 42.1824 7.84935 42.2014 8.62857H40.0903ZM45.0153 19.3252V4.81747H54.111V6.70178H47.2043V11.1221H53.6366V12.9993H47.2043V17.4408H54.1961V19.3252H45.0153ZM58.2605 19.3252H55.9369L61.1577 4.81747H63.6867L68.9075 19.3252H66.5839L62.4823 7.45267H62.3692L58.2605 19.3252ZM58.6501 13.6439H66.1874V15.4857H58.6501V13.6439ZM71.0023 19.3252V4.81747H73.1913V17.4408H79.7652V19.3252H71.0023Z" fill="white" fill-opacity="0.64"/>
<path d="M14.7706 7.08275C15.5319 6.15276 16.2122 5.24083 17.174 4.55823C18.1339 3.87703 19.3691 3.46455 20.5059 3.42331C22.7052 3.34355 24.8017 4.67966 26.1257 6.64427C26.1849 6.73216 26.2686 6.83926 26.3096 6.93788C29.3318 11.5568 26.2861 18.5975 21.428 19.212C20.9261 19.2755 20.402 19.2671 19.896 19.2875L19.1301 19.3177C18.9065 19.3264 18.6755 19.3386 18.4534 19.2939L18.3641 19.2663C17.276 18.8777 16.9995 17.0397 18.0522 16.4067C18.4147 16.1888 18.898 16.2311 19.3007 16.2144L20.5602 16.1611C24.473 15.8569 26.1114 10.1507 22.9016 7.40996C21.6614 6.39984 20.0267 6.26706 18.7327 7.16301C18.1311 7.66723 17.6396 8.28449 17.1312 8.90064L10.3486 17.0773C9.89877 17.5765 9.43511 18.0423 8.87675 18.3839C7.43235 19.2677 5.7829 19.3114 4.24151 18.6507C0.572997 17.0783 -1.12743 12.0729 0.807783 8.24544C1.97103 5.68261 3.98468 4.12155 6.54099 4.01546C8.08581 3.95131 9.63237 4.52653 10.8756 5.58415C11.2226 5.87941 11.5417 6.18135 11.6779 6.66802C12.0413 7.96807 10.8077 9.12019 9.68137 8.41868C9.37336 8.2268 9.10503 7.96071 8.80247 7.75952C7.12559 6.64423 5.11296 6.98924 3.91249 8.70128C3.21013 9.82292 2.86772 11.1673 3.05537 12.5434C3.20284 13.6248 3.66881 14.6754 4.47287 15.318C5.53202 16.1644 6.92034 16.1839 7.95746 15.3277C8.34407 15.0086 8.67527 14.5581 8.99828 14.16L14.7706 7.08275Z" fill="white" fill-opacity="0.64"/>
</g>
</svg>
