<svg width="88" height="24" viewBox="0 0 88 24" fill="none" xmlns="http://www.w3.org/2000/svg">
<g clip-path="url(#clip0_6002_655)">
<mask id="mask0_6002_655" style="mask-type:luminance" maskUnits="userSpaceOnUse" x="0" y="0" width="88" height="25">
<path d="M87.3577 0.00195312H0.00146484V24.002H87.3577V0.00195312Z" fill="white"/>
</mask>
<g mask="url(#mask0_6002_655)">
<path d="M27.0615 18.0612V6.30238H34.4336V7.82964H28.8355V11.4124H34.0491V12.934H28.8355V16.534H34.5025V18.0612H27.0615ZM43.2168 9.39135C43.1557 8.84782 42.903 8.42678 42.4589 8.1282C42.015 7.82582 41.4562 7.67462 40.7824 7.67462C40.3002 7.67462 39.8831 7.75117 39.5309 7.90429C39.1787 8.05357 38.9049 8.26027 38.7099 8.52437C38.5184 8.78466 38.4226 9.08132 38.4226 9.41432C38.4226 9.69375 38.4878 9.93492 38.6179 10.1378C38.7518 10.3406 38.9261 10.511 39.1403 10.6488C39.3586 10.7827 39.5921 10.8957 39.8409 10.9875C40.0897 11.0756 40.329 11.1483 40.5586 11.2057L41.7068 11.5043C42.082 11.5961 42.4667 11.7205 42.8609 11.8775C43.2552 12.0344 43.6208 12.2411 43.9575 12.4976C44.2945 12.754 44.5661 13.0717 44.773 13.4507C44.9835 13.8296 45.0888 14.2832 45.0888 14.8115C45.0888 15.4775 44.9165 16.0689 44.5719 16.5856C44.2314 17.1024 43.7357 17.51 43.0849 17.8086C42.4379 18.1071 41.6553 18.2564 40.7365 18.2564C39.8561 18.2564 39.0944 18.1167 38.4514 17.8373C37.8082 17.5579 37.305 17.1617 36.9414 16.6488C36.5777 16.132 36.3768 15.5196 36.3384 14.8115H38.1184C38.1528 15.2363 38.2907 15.5904 38.5318 15.8737C38.7768 16.1531 39.0888 16.3617 39.4678 16.4995C39.8505 16.6335 40.2696 16.7005 40.7251 16.7005C41.2266 16.7005 41.6725 16.622 42.0628 16.465C42.4571 16.3043 42.7671 16.0823 42.993 15.799C43.2188 15.5119 43.3318 15.177 43.3318 14.7942C43.3318 14.4459 43.2322 14.1607 43.0331 13.9387C42.8381 13.7167 42.5718 13.533 42.2351 13.3875C41.9021 13.2421 41.5252 13.1139 41.1041 13.0028L39.7146 12.6239C38.773 12.3674 38.0265 11.9904 37.4753 11.4928C36.9281 10.9952 36.6542 10.3368 36.6542 9.51767C36.6542 8.84016 36.8381 8.24878 37.2054 7.74351C37.573 7.23825 38.0704 6.84591 38.6982 6.56648C39.326 6.28323 40.0342 6.1416 40.8226 6.1416C41.6189 6.1416 42.3212 6.28131 42.9298 6.56074C43.5422 6.84018 44.0245 7.22486 44.3766 7.71481C44.7288 8.20093 44.9127 8.75977 44.9279 9.39135H43.2168ZM46.6288 7.82964V6.30238H55.7294V7.82964H52.0604V18.0612H50.292V7.82964H46.6288ZM57.3442 18.0612H55.4608L59.6924 6.30238H61.7423L65.9739 18.0612H64.0907L60.7661 8.43825H60.6744L57.3442 18.0612ZM57.66 13.4564H63.7691V14.9492H57.66V13.4564ZM65.7025 7.82964V6.30238H74.8031V7.82964H71.1341V18.0612H69.3657V7.82964H65.7025ZM76.814 18.0612V6.30238H84.1863V7.82964H78.5883V11.4124H83.8016V12.934H78.5883V16.534H84.2553V18.0612H76.814Z" fill="white" fill-opacity="0.64"/>
<path d="M0.00146484 19.1638V0.00195312H24.0015V24.002H0.00146484V19.1638ZM0.00146484 19.1638L1.29489 19.1612L1.30805 9.4717L5.9541 9.46776C5.96332 8.83484 5.93568 3.51247 6.00541 3.4309L18.0344 3.43221V7.18485L21.3554 7.21117L21.3725 11.0835L22.7159 11.1112L22.708 19.1427L24.0015 19.1796V0.00195312H0.00146484V19.1638ZM24.0015 20.5875L0.00146484 20.6033V24.002H24.0015V20.5875ZM8.56199 4.85326L7.35805 4.85854V9.44931L10.2857 9.49011L10.2883 11.6677C11.6659 11.4677 12.9199 11.0467 14.083 10.2691C14.8883 9.70326 15.6896 9.00327 16.2765 8.20854C16.4015 8.0388 16.5633 7.85064 16.6015 7.6388C16.6436 7.40328 16.7094 5.00327 16.633 4.88747L16.6199 4.87037L8.56199 4.85326ZM16.5554 10.1033C16.1054 10.4335 15.7159 10.8375 15.2659 11.1717C13.8725 12.2033 12.0436 12.9783 10.3067 13.1283C10.2278 14.5743 10.2844 16.0441 10.2883 17.4927L10.2896 18.5243C10.287 18.7019 10.2607 18.9138 10.3094 19.0849L10.3844 19.144L16.6317 19.1612C16.6791 19.0243 16.6436 18.7927 16.6436 18.6454L16.6462 17.2467L16.6449 10.1967C16.6172 10.152 16.608 10.1191 16.5554 10.1033ZM18.0923 12.5414C18.012 12.6901 18.0383 12.8967 18.037 13.0625L18.0383 14.1954V17.3638C18.037 17.9533 18.062 18.5546 18.0265 19.1427L20.5001 19.1651C20.712 19.1651 21.133 19.2138 21.2975 19.1085L21.3199 19.0559L21.2962 12.5401L18.0923 12.5414ZM7.01856 10.9243L6.99226 15.3204L5.59882 15.5941L6.92382 18.1019C7.0633 18.3691 7.28963 18.9651 7.52382 19.1191L8.88172 19.1743L8.88568 10.9125L7.01856 10.9243ZM2.67645 10.9177L2.68568 14.6967L5.23963 14.2204L5.61595 14.1085L5.62646 10.9309L2.67645 10.9177ZM3.77252 15.9519L2.69224 16.1822L2.67514 19.1335L4.84093 19.1625L5.88437 19.1651C5.61464 18.7085 4.34488 16.0506 4.10279 15.927L3.77252 15.9519ZM18.0488 8.62563L18.0265 11.0783C18.3646 11.0835 19.7238 11.1914 19.9475 11.0414L19.9541 8.63089L18.0488 8.62563Z" fill="white" fill-opacity="0.64"/>
</g>
</g>
<defs>
<clipPath id="clip0_6002_655">
<rect width="87.4105" height="24" fill="white"/>
</clipPath>
</defs>
</svg>
