<svg width="82" height="24" viewBox="0 0 82 24" fill="none" xmlns="http://www.w3.org/2000/svg">
<g clip-path="url(#clip0_6002_694)">
<mask id="mask0_6002_694" style="mask-type:luminance" maskUnits="userSpaceOnUse" x="0" y="0" width="82" height="24">
<path d="M81.8898 0.00195312H0.000976562V23.7466H81.8898V0.00195312Z" fill="white"/>
</mask>
<g mask="url(#mask0_6002_694)">
<path d="M24.6421 19.4608V6.16211H32.6682V7.59068H26.2525V12.0842H32.2525V13.5128H26.2525V18.0323H32.7719V19.4608H24.6421ZM34.8433 7.59068V6.16211H44.8173V7.59068H40.6356V19.4608H39.0253V7.59068H34.8433ZM47.3027 19.4608V6.16211H48.9133V12.0842H56.0042V6.16211H57.6145V19.4608H56.0042V13.5128H48.9133V19.4608H47.3027ZM60.8385 19.4608V6.16211H68.8645V7.59068H62.449V12.0842H68.449V13.5128H62.449V18.0323H68.9685V19.4608H60.8385ZM71.767 19.4608V6.16211H76.2605C77.2996 6.16211 78.1525 6.3396 78.819 6.69457C79.4856 7.04522 79.9793 7.52791 80.2996 8.14262C80.6199 8.75734 80.7802 9.45648 80.7802 10.24C80.7802 11.0236 80.6199 11.7184 80.2996 12.3245C79.9793 12.9305 79.4879 13.4067 78.8256 13.753C78.1633 14.095 77.3167 14.266 76.2865 14.266H72.6502V12.8115H76.2347C76.9445 12.8115 77.5159 12.7076 77.949 12.4998C78.3862 12.292 78.7022 11.9976 78.897 11.6167C79.0962 11.2314 79.1956 10.7725 79.1956 10.24C79.1956 9.70757 79.0962 9.2422 78.897 8.84394C78.6979 8.44565 78.3796 8.13831 77.9425 7.92185C77.5053 7.70108 76.9273 7.59068 76.2087 7.59068H73.3776V19.4608H71.767ZM78.0267 13.4868L81.2996 19.4608H79.4293L76.2087 13.4868H78.0267Z" fill="white" fill-opacity="0.64"/>
<path d="M10.4149 0.0188261L10.529 0.00195312L20.9639 10.9559L10.5499 21.9115L10.4648 21.952L0.000976562 10.9508L10.4149 0.0188261ZM11.1252 2.46541L11.1043 9.74272L11.1059 12.4829C11.1059 12.9402 11.0738 13.4362 11.122 13.8884L16.7267 11.641L18.9843 10.7366L11.1252 2.46541ZM9.75615 2.55821L2.0947 10.5982C2.80653 11.0116 3.64532 11.2832 4.40375 11.6004L9.87666 13.9002L9.87023 5.16341L9.86863 3.41872C9.86863 3.1589 9.91201 2.80287 9.84615 2.55821H9.75615ZM3.21629 12.5302L9.769 19.384L9.85258 19.3806L9.87023 15.3058L6.23072 13.7703L4.42623 13.0077C4.03095 12.8406 3.62923 12.6466 3.21629 12.5302ZM17.3051 12.7984L11.1316 15.3176C11.0721 15.8946 11.1043 16.4987 11.1059 17.0791L11.1236 19.3502L11.183 19.3873L11.2457 19.362L17.4449 12.8406L17.4337 12.7765L17.3051 12.7984Z" fill="white" fill-opacity="0.64"/>
</g>
</g>
<defs>
<clipPath id="clip0_6002_694">
<rect width="82" height="24" fill="white"/>
</clipPath>
</defs>
</svg>
