<svg xmlns="http://www.w3.org/2000/svg" xmlns:xlink="http://www.w3.org/1999/xlink"><symbol fill="none" id="sprite-a" viewBox="0 0 260 298"><path d="M166.621 10.8795C158.659 3.56057 146.338 0 129.576 0C111.053 0 97.978 3.95619 90.351 11.8686C82.7239 19.781 76.7732 31.0561 72.4149 45.5951L0 298H32.6873L54.9817 216.404H191.011L214.395 298H259.57L185.563 45.5951C180.87 29.7703 174.5 18.1985 166.537 10.8795H166.621ZM149.607 193.952C106.276 193.952 75.516 144.302 88.6747 95.542L96.9722 64.7826C98.3971 58.7494 100.66 53.2108 103.761 48.0677C106.862 42.9247 113.316 40.3531 123.122 40.3531C131.839 40.3531 137.622 42.8258 140.555 47.771C143.489 52.7162 145.836 58.3538 147.596 64.7826L183.552 193.853H149.691L149.607 193.952Z" fill="currentColor"/></symbol><use xlink:href="#sprite-a" width="260" height="298" y="0"/><view id="sprite-a-view" viewBox="0 0 260 298"/><symbol fill="none" id="sprite-arrow" viewBox="0 0 29 29"><path d="M28.9141 27.5H24.9141V6.82812L2.82812 28.9141L0 26.0859L22.0859 4H1.41406V0H28.9141V27.5Z" fill="currentColor"/></symbol><use xlink:href="#sprite-arrow" width="29" height="29" y="298"/><view id="sprite-arrow-view" viewBox="0 298 29 29"/><symbol fill="none" id="sprite-facebook" viewBox="0 0 24 24"><path d="M3 10.2V14.1875C3 16.8181 3 18.1334 3.59458 19.0984C3.92224 19.6301 4.36988 20.0778 4.90164 20.4054C5.86658 21 7.18189 21 9.8125 21H13.8C16.7998 21 18.2997 21 19.3511 20.2361C19.6907 19.9893 19.9893 19.6907 20.2361 19.3511C21 18.2997 21 16.7998 21 13.8V10.2C21 7.20021 21 5.70032 20.2361 4.64886C19.9893 4.30928 19.6907 4.01065 19.3511 3.76393C18.2997 3 16.7998 3 13.8 3H10.2C7.20021 3 5.70032 3 4.64886 3.76393C4.30928 4.01065 4.01065 4.30928 3.76393 4.64886C3 5.70032 3 7.20021 3 10.2Z" stroke="white" stroke-width="1.5"/><path fill-rule="evenodd" clip-rule="evenodd" d="M14.638 9.49555C14.2538 9.89017 14.2778 10.2119 14.2778 10.8986V11.9809H16.8333L16.3125 14.1455H14.2778V21H11.9444V14.1455H10V11.9809H11.9444V10.8986C11.9444 10.1423 12.0484 8.92591 12.9064 8.04465C13.8734 7.05154 15.0556 6.79439 17 7.15515V9.31974C15.4916 8.9381 14.8412 9.28681 14.638 9.49555Z" fill="white"/></symbol><use xlink:href="#sprite-facebook" width="24" height="24" y="327"/><view id="sprite-facebook-view" viewBox="0 327 24 24"/><symbol fill="none" id="sprite-help-circle" viewBox="0 0 32 32"><path d="M16 29.3332C23.3638 29.3332 29.3333 23.3636 29.3333 15.9998C29.3333 8.63604 23.3638 2.6665 16 2.6665C8.63616 2.6665 2.66663 8.63604 2.66663 15.9998C2.66663 23.3636 8.63616 29.3332 16 29.3332Z" stroke="currentColor" stroke-width="2"/><path d="M13.3334 12.0002C13.3334 10.5274 14.5272 9.3335 16 9.3335C17.4728 9.3335 18.6667 10.5274 18.6667 12.0002C18.6667 12.531 18.5116 13.0257 18.2442 13.4412C17.4472 14.6798 16 15.8607 16 17.3335V18.0002" stroke="currentColor" stroke-width="2" stroke-linecap="round"/><path d="M15.9896 22.6665H16.0016" stroke="currentColor" stroke-width="2.66667" stroke-linecap="round" stroke-linejoin="round"/></symbol><use xlink:href="#sprite-help-circle" width="32" height="32" y="351"/><view id="sprite-help-circle-view" viewBox="0 351 32 32"/><symbol fill="none" id="sprite-hot-price" viewBox="0 0 32 32"><path d="M16 29.3334C21.8911 29.3334 26.6667 24.5578 26.6667 18.6667C26.6667 10.6667 16 2.66675 16 2.66675C15.4823 5.98264 14.9754 7.76219 13.3334 10.6667C11.7321 9.92661 11.3334 9.33341 10.6667 7.66675C8.00004 10.6667 5.33337 14.6667 5.33337 18.6667C5.33337 24.5578 10.109 29.3334 16 29.3334Z" stroke="white" stroke-width="2" stroke-linejoin="round"/><path d="M13.3334 22.6666L18.6667 17.3333" stroke="white" stroke-width="2" stroke-linecap="round" stroke-linejoin="round"/><path d="M13.3334 17.3333H13.3454M18.6547 22.6666H18.6667" stroke="white" stroke-width="2.66667" stroke-linecap="round" stroke-linejoin="round"/></symbol><use xlink:href="#sprite-hot-price" width="32" height="32" y="383"/><view id="sprite-hot-price-view" viewBox="0 383 32 32"/><symbol fill="none" id="sprite-i" viewBox="0 0 42 296"><path d="M4.60977 2.57152C2.59824 4.2529 1.341 6.52771 0.838122 9.29705C0.335241 12.0664 0 15.8248 0 20.5722V295.428H41.9068V0H14.6674C9.97381 0 6.62129 0.890143 4.60977 2.57152Z" fill="currentColor"/></symbol><use xlink:href="#sprite-i" width="42" height="296" y="415"/><view id="sprite-i-view" viewBox="0 415 42 296"/><symbol fill="none" id="sprite-instagram" viewBox="0 0 24 24"><path d="M10.2 21H13.8C16.7998 21 18.2997 21 19.3511 20.2361C19.6907 19.9893 19.9893 19.6907 20.2361 19.3511C21 18.2997 21 16.7998 21 13.8V10.2C21 7.20021 21 5.70032 20.2361 4.64886C19.9893 4.30928 19.6907 4.01065 19.3511 3.76393C18.2997 3 16.7998 3 13.8 3H10.2C7.20021 3 5.70032 3 4.64886 3.76393C4.30928 4.01065 4.01065 4.30928 3.76393 4.64886C3 5.70032 3 7.20021 3 10.2V13.8C3 16.7998 3 18.2997 3.76393 19.3511C4.01065 19.6907 4.30928 19.9893 4.64886 20.2361C5.70032 21 7.20021 21 10.2 21Z" stroke="white" stroke-width="1.5"/><circle cx="12" cy="12" r="4" stroke="white" stroke-width="1.5"/><circle cx="17" cy="7" r="1" fill="white"/></symbol><use xlink:href="#sprite-instagram" width="24" height="24" y="711"/><view id="sprite-instagram-view" viewBox="0 711 24 24"/><symbol fill="none" id="sprite-lightning" viewBox="0 0 18 26"><path d="M1.7414 12.2292L9.23953 1.89886C9.8259 1.09093 10.9252 1.59379 10.9252 2.67V10.6658C10.9252 11.3105 11.3562 11.8331 11.8879 11.8331H15.5349C16.3633 11.8331 16.8049 13.0175 16.2577 13.7715L8.75953 24.1019C8.17315 24.9098 7.0739 24.407 7.0739 23.3307V15.335C7.0739 14.6902 6.6429 14.1676 6.11116 14.1676H2.46418C1.6357 14.1676 1.19409 12.9833 1.7414 12.2292Z" stroke="white" stroke-width="3" stroke-linecap="round" stroke-linejoin="round"/></symbol><use xlink:href="#sprite-lightning" width="18" height="26" y="735"/><view id="sprite-lightning-view" viewBox="0 735 18 26"/><symbol fill="none" id="sprite-linkedin" viewBox="0 0 24 24"><path d="M3 10.2C3 7.20021 3 5.70032 3.76393 4.64886C4.01065 4.30928 4.30928 4.01065 4.64886 3.76393C5.70032 3 7.20021 3 10.2 3H13.8C16.7998 3 18.2997 3 19.3511 3.76393C19.6907 4.01065 19.9893 4.30928 20.2361 4.64886C21 5.70032 21 7.20021 21 10.2V13.8C21 16.7998 21 18.2997 20.2361 19.3511C19.9893 19.6907 19.6907 19.9893 19.3511 20.2361C18.2997 21 16.7998 21 13.8 21H12H10.2C7.20021 21 5.70032 21 4.64886 20.2361C4.30928 19.9893 4.01065 19.6907 3.76393 19.3511C3 18.2997 3 16.7998 3 13.8V10.2Z" stroke="white" stroke-width="1.5" stroke-linejoin="round"/><path d="M8.06818 16.2259V9.6804H9.88352V16.2259H8.06818ZM8.98011 8.83665C8.71023 8.83665 8.47869 8.74716 8.28551 8.56818C8.09517 8.38636 8 8.16903 8 7.91619C8 7.66619 8.09517 7.4517 8.28551 7.27273C8.47869 7.09091 8.71023 7 8.98011 7C9.25 7 9.48011 7.09091 9.67045 7.27273C9.86364 7.4517 9.96023 7.66619 9.96023 7.91619C9.96023 8.16903 9.86364 8.38636 9.67045 8.56818C9.48011 8.74716 9.25 8.83665 8.98011 8.83665Z" fill="white"/><path d="M13.1531 12.4418V16.2259H11.3377V9.6804H13.0678V10.8352H13.1445C13.2894 10.4545 13.5323 10.1534 13.8732 9.93182C14.2141 9.70739 14.6275 9.59517 15.1133 9.59517C15.5678 9.59517 15.9641 9.6946 16.3022 9.89347C16.6403 10.0923 16.9031 10.3764 17.0906 10.7457C17.2781 11.1122 17.3718 11.5497 17.3718 12.0582V16.2259H15.5565V12.3821C15.5593 11.9815 15.457 11.669 15.2496 11.4446C15.0423 11.2173 14.7567 11.1037 14.3931 11.1037C14.1488 11.1037 13.9329 11.1563 13.7454 11.2614C13.5607 11.3665 13.4158 11.5199 13.3107 11.7216C13.2085 11.9205 13.1559 12.1605 13.1531 12.4418Z" fill="white"/></symbol><use xlink:href="#sprite-linkedin" width="24" height="24" y="761"/><view id="sprite-linkedin-view" viewBox="0 761 24 24"/><symbol fill="none" id="sprite-n" viewBox="0 0 248 296"><path d="M161.173 162.896L53.3054 0.0989047H16.8465C8.88425 0.0989047 4.02306 1.58248 2.4306 4.54962C0.838143 7.51676 0 14.8357 0 26.4076V295.527H31.011V46.2874L195.369 295.428H229.146C236.773 295.428 241.718 294.143 244.149 291.571C246.496 289 247.669 282.175 247.669 270.999L247.837 0H217.245L216.323 140.741C216.071 175.061 179.277 189.897 161.341 162.797L161.173 162.896Z" fill="currentColor"/></symbol><use xlink:href="#sprite-n" width="248" height="296" y="785"/><view id="sprite-n-view" viewBox="0 785 248 296"/><symbol fill="none" id="sprite-star" viewBox="0 0 16 16"><path d="M7.71206 2.98458C7.81501 2.63257 7.86648 2.45656 7.9576 2.43259C7.98539 2.42528 8.01461 2.42528 8.0424 2.43259C8.13352 2.45656 8.18499 2.63257 8.28794 2.98459L9.31155 6.48472C9.33154 6.55309 9.34153 6.58727 9.36295 6.61347C9.37 6.6221 9.3779 6.63 9.38653 6.63705C9.41273 6.65847 9.44691 6.66846 9.51528 6.68845L13.0154 7.71206C13.3674 7.81501 13.5434 7.86648 13.5674 7.9576C13.5747 7.98539 13.5747 8.01461 13.5674 8.0424C13.5434 8.13352 13.3674 8.18499 13.0154 8.28794L9.51528 9.31155C9.44691 9.33154 9.41273 9.34153 9.38653 9.36295C9.3779 9.37 9.37 9.3779 9.36295 9.38653C9.34153 9.41273 9.33154 9.44691 9.31155 9.51528L8.28794 13.0154C8.18499 13.3674 8.13352 13.5434 8.0424 13.5674C8.01461 13.5747 7.98539 13.5747 7.9576 13.5674C7.86648 13.5434 7.81501 13.3674 7.71206 13.0154L6.68845 9.51528C6.66846 9.44691 6.65847 9.41273 6.63705 9.38653C6.63 9.3779 6.6221 9.37 6.61347 9.36295C6.58727 9.34153 6.55309 9.33154 6.48472 9.31155L2.98458 8.28794C2.63257 8.18499 2.45656 8.13352 2.43259 8.0424C2.42528 8.01461 2.42528 7.98539 2.43259 7.9576C2.45656 7.86648 2.63257 7.81501 2.98459 7.71206L6.48472 6.68845C6.55309 6.66846 6.58727 6.65847 6.61347 6.63705C6.6221 6.63 6.63 6.6221 6.63705 6.61347C6.65847 6.58727 6.66846 6.55309 6.68845 6.48472L7.71206 2.98458Z" stroke="currentColor"/></symbol><use xlink:href="#sprite-star" width="16" height="16" y="1081"/><view id="sprite-star-view" viewBox="0 1081 16 16"/><symbol fill="none" id="sprite-staryellow" viewBox="0 0 17 16"><path d="M7.20909 0.671489C7.52038 -0.224071 8.78692 -0.224071 9.09821 0.67149L10.4093 4.44326C10.5466 4.83833 10.9153 5.1062 11.3335 5.11472L15.3258 5.19608C16.2737 5.2154 16.6651 6.41994 15.9095 6.99275L12.7275 9.40518C12.3942 9.65787 12.2534 10.0913 12.3745 10.4916L13.5308 14.3137C13.8054 15.2212 12.7807 15.9656 12.0025 15.4241L8.72483 13.1433C8.38151 12.9044 7.92579 12.9044 7.58247 13.1433L4.3048 15.4241C3.52656 15.9656 2.50192 15.2212 2.77647 14.3137L3.93279 10.4916C4.0539 10.0913 3.91307 9.65787 3.57978 9.40518L0.397751 6.99275C-0.357781 6.41994 0.0335991 5.2154 0.981523 5.19608L4.97383 5.11472C5.392 5.1062 5.76069 4.83833 5.89802 4.44326L7.20909 0.671489Z" fill="currentColor"/></symbol><use xlink:href="#sprite-staryellow" width="17" height="16" y="1097"/><view id="sprite-staryellow-view" viewBox="0 1097 17 16"/><symbol fill="none" id="sprite-twitter-x" viewBox="0 0 24 24"><path d="M13.3482 10.4769L21 20.2385H16.6829L10.9848 12.9692M13.3482 10.4769L7.97561 3.62308H3.65854L10.9848 12.9692M13.3482 10.4769L20.561 3M10.9848 12.9692L3 21" stroke="white" stroke-width="1.5"/></symbol><use xlink:href="#sprite-twitter-x" width="24" height="24" y="1113"/><view id="sprite-twitter-x-view" viewBox="0 1113 24 24"/><symbol fill="none" id="sprite-work-history" viewBox="0 0 32 32"><path d="M14.6753 27.9999H12.8072C8.02691 27.9999 5.63675 27.9999 4.15168 26.4866C2.66663 24.9734 2.66663 22.5378 2.66663 17.6666C2.66663 12.7954 2.66663 10.3598 4.15168 8.84653C5.63675 7.33325 8.02691 7.33325 12.8072 7.33325H17.8776C22.6578 7.33325 25.0481 7.33325 26.5332 8.84653C27.6757 10.0108 27.9392 11.7211 28 14.6666" stroke="white" stroke-width="2" stroke-linecap="round" stroke-linejoin="round"/><path d="M25.1334 25.1333L23.3334 23.9333V20.9333M17.3334 23.3333C17.3334 26.647 20.0196 29.3333 23.3334 29.3333C26.6471 29.3333 29.3334 26.647 29.3334 23.3333C29.3334 20.0195 26.6471 17.3333 23.3334 17.3333C20.0196 17.3333 17.3334 20.0195 17.3334 23.3333Z" stroke="white" stroke-width="2" stroke-linecap="round" stroke-linejoin="round"/><path d="M21.3334 7.33341L21.201 6.92133C20.5408 4.86793 20.2108 3.84124 19.4252 3.25399C18.6395 2.66675 17.596 2.66675 15.5088 2.66675H15.1579C13.0708 2.66675 12.0272 2.66675 11.2415 3.25399C10.4559 3.84124 10.1259 4.86793 9.46583 6.92133L9.33337 7.33341" stroke="white" stroke-width="2" stroke-linecap="round" stroke-linejoin="round"/></symbol><use xlink:href="#sprite-work-history" width="32" height="32" y="1137"/><view id="sprite-work-history-view" viewBox="0 1137 32 32"/><symbol fill="none" id="sprite-x" viewBox="0 0 257 297"><path d="M237.276 268.526L149.356 141.731L249.764 0H210.54L130.833 113.938L58.7533 0H4.3583L104.599 151.423L21.2048 269.812C17.9361 274.065 14.4997 278.615 10.8958 283.263C7.29178 288.011 3.60398 292.264 0 296.121H24.4735C31.3463 296.121 36.7941 294.934 40.8172 292.56C44.8402 290.187 48.2766 286.923 51.1262 282.571L123.038 179.117L190.927 280.692C193.861 284.945 196.627 288.208 199.392 290.285C202.158 292.362 205.092 293.945 208.36 294.736C211.629 295.626 215.233 296.022 219.256 296.022H256.805C254.29 293.055 251.524 289.395 248.675 285.142C245.741 280.89 241.97 275.252 237.276 268.428V268.526Z" fill="currentColor"/></symbol><use xlink:href="#sprite-x" width="257" height="297" y="1169"/><view id="sprite-x-view" viewBox="0 1169 257 297"/><symbol fill="none" id="sprite-youtube" viewBox="0 0 24 24"><path d="M10 19H14C16.8089 19 18.2134 19 19.2223 18.3259C19.659 18.034 20.034 17.659 20.3259 17.2223C21 16.2134 21 14.8089 21 12C21 9.19108 21 7.78661 20.3259 6.77772C20.034 6.34096 19.659 5.96596 19.2223 5.67412C18.2134 5 16.8089 5 14 5H10C7.19108 5 5.78661 5 4.77772 5.67412C4.34096 5.96596 3.96596 6.34096 3.67412 6.77772C3 7.78661 3 9.19108 3 12C3 14.8089 3 16.2134 3.67412 17.2223C3.96596 17.659 4.34096 18.034 4.77772 18.3259C5.78661 19 7.19108 19 10 19Z" stroke="white" stroke-width="1.5"/><path d="M12.7801 10.39C14.0169 11.0085 14.6354 11.3177 14.7395 11.7804C14.7721 11.925 14.7721 12.075 14.7395 12.2196C14.6354 12.6823 14.0169 12.9915 12.7801 13.61L12.605 13.6975C11.5762 14.2119 11.0618 14.4691 10.657 14.3213C10.5291 14.2746 10.4122 14.2023 10.3132 14.1089C10 13.8129 10 13.2378 10 12.0875L10 11.9125C10 10.7622 10 10.1871 10.3132 9.89115C10.4122 9.79768 10.5291 9.72539 10.657 9.67871C11.0618 9.53089 11.5762 9.78809 12.605 10.3025L12.7801 10.39Z" stroke="white" stroke-width="1.5"/></symbol><use xlink:href="#sprite-youtube" width="24" height="24" y="1466"/><view id="sprite-youtube-view" viewBox="0 1466 24 24"/></svg>